<svg xmlns="http://www.w3.org/2000/svg" xmlns:xlink="http://www.w3.org/1999/xlink" height="365" viewBox="0 0 53 365" width="53"><svg height="62.5" viewBox="0 0 45 63" width="45" x="4" y="4"><path d="M28.43,44.68c-.51.32-1,.63-1.46,1-2.53,1.8-4.7,4.33-5,5.36-.31-1-2.25-3.51-5-5.31-.9-.59-1.93-1.17-2.93-1.83a22.51,22.51,0,1,1,14.34.82Z" transform="translate(0 -.5)" fill="#59bd52"/><path d="M22.5,16A7.5,7.5,0,1,1,15,23.5,7.5,7.5,0,0,1,22.5,16Z" transform="translate(0 -.5)" fill="#fff"/><path d="M22,55a4,4,0,1,1-4,4A4,4,0,0,1,22,55Z" transform="translate(0 -.5)" fill="#59bd52"/></svg><svg height="11.8" viewBox="0 0 41 12" width="40.3" x="4" y="71"><path d="M40.17,6.5l.13.1L40,7h0l-.3.4-.37-.28-7,5.28-.6-.8L37.83,7H0V6H37.83L31.7,1.4l.6-.8,7,5.28.37-.28L40,6h0l.3.4Z" transform="translate(0 -.6)" fill="#123f36"/></svg><svg height="25" viewBox="0 0 14 25" width="14" x="4" y="87"><path d="M2,.3A1.24,1.24,0,0,0,1.17,0,1.11,1.11,0,0,0,0,1a1,1,0,0,0,.34.74L11.27,12.49.35,23.21A1,1,0,0,0,0,24a1.11,1.11,0,0,0,1.17,1A1.23,1.23,0,0,0,2,24.69L13.66,13.23a1,1,0,0,0,0-1.47Z" transform="translate(-.01 .01)" fill="#fff"/></svg><svg height="25" viewBox="0 0 14 25" width="14" x="4" y="116"><path d="M.35,11.76a1,1,0,0,0,0,1.47L12,24.69a1.23,1.23,0,0,0,.83.31A1.11,1.11,0,0,0,14,24a1,1,0,0,0-.34-.74L2.75,12.49,13.66,1.77A1,1,0,0,0,14,1a1.11,1.11,0,0,0-1.17-1A1.24,1.24,0,0,0,12,.3Z" transform="translate(-.01 .01)" fill="#fff"/></svg><svg height="15" viewBox="0 0 15 15" width="15" x="4" y="145"><path d="M13.32,15H1.68A1.68,1.68,0,0,1,0,13.32V1.68A1.68,1.68,0,0,1,1.68,0H13.32A1.68,1.68,0,0,1,15,1.68V13.32A1.68,1.68,0,0,1,13.32,15Zm.43-13.32a.43.43,0,0,0-.43-.43H11.44v.53a.63.63,0,1,1-1.25,0V1.25H4.8v.53a.62.62,0,1,1-1.25,0V1.25H1.68a.43.43,0,0,0-.43.43V4.86h12.5Zm0,4.43H1.25v7.2a.43.43,0,0,0,.43.43H13.32a.43.43,0,0,0,.43-.43Zm-2,6.63H11a.63.63,0,1,1,0-1.25h.75a.63.63,0,1,1,0,1.25Zm0-3.66H11a.63.63,0,0,1,0-1.25h.75a.63.63,0,0,1,0,1.25ZM7.87,12.74H7.13a.63.63,0,1,1,0-1.25h.75a.63.63,0,1,1,0,1.25Zm0-3.66H7.13a.63.63,0,0,1,0-1.25h.75a.63.63,0,0,1,0,1.25ZM4,12.74H3.28a.63.63,0,1,1,0-1.25H4a.63.63,0,1,1,0,1.25ZM4,9.08H3.28a.63.63,0,0,1,0-1.25H4A.63.63,0,0,1,4,9.08Z" fill="#c7c7c7"/></svg><svg height="15" viewBox="0 0 15 15" width="15" x="4" y="164"><path d="M14.87,4.74a14.08,14.08,0,0,1-3.92,6.21,14.07,14.07,0,0,1-6.21,3.92,3.1,3.1,0,0,1-.9.13A3.28,3.28,0,0,1,1,13.35L.19,11.91A1.41,1.41,0,0,1,.71,10L2.62,8.8a1.42,1.42,0,0,1,1.91.45l.27.43A.16.16,0,0,0,5,9.74a11.83,11.83,0,0,0,2.74-2A12.37,12.37,0,0,0,9.74,5a.16.16,0,0,0-.07-.19l-.42-.27a1.41,1.41,0,0,1-.47-1.89L10,.69a1.41,1.41,0,0,1,1.92-.5L13.35,1A3.26,3.26,0,0,1,14.87,4.74ZM12.73,2.1l-1.44-.82a.16.16,0,0,0-.12,0,.15.15,0,0,0-.1.08l-1.21,2a.16.16,0,0,0,.07.2l.42.27a1.41,1.41,0,0,1,.56,1.71A13.4,13.4,0,0,1,8.61,8.66,12.88,12.88,0,0,1,5.46,10.9a1.41,1.41,0,0,1-1.71-.56l-.27-.42a.16.16,0,0,0-.14-.08l-.08,0L1.35,11.06a.17.17,0,0,0-.08.23l.82,1.44a2,2,0,0,0,2.28.94A12.8,12.8,0,0,0,9.9,10.24l.09-.1.08-.07.07-.08.1-.09a12.79,12.79,0,0,0,3.43-5.52A2,2,0,0,0,12.73,2.1Zm-7,2.33A1.32,1.32,0,0,0,4.43,5.75a.62.62,0,1,1-1.25,0A2.57,2.57,0,0,1,5.75,3.18a.63.63,0,0,1,0,1.25Zm0-2.69a4,4,0,0,0-4,4,.63.63,0,0,1-1.25,0A5.27,5.27,0,0,1,5.75.49a.62.62,0,1,1,0,1.25Z" fill="#666"/></svg><svg height="15" viewBox="0 0 15 15" width="15" x="4" y="183"><path d="M14.38,13.18H13.23v1.19a.63.63,0,0,1-.62.63H2.66A.63.63,0,0,1,2,14.38V13.18H.63A.63.63,0,0,1,0,12.56V6.65A.63.63,0,0,1,.63,6H3.91V.63A.63.63,0,0,1,4.53,0H8.47a.63.63,0,0,1,.45.19L10.76,2.1a.62.62,0,0,1,.18.43V6h3.44a.63.63,0,0,1,.63.63v5.91A.63.63,0,0,1,14.38,13.18Zm-11.09.57H12V11.59H3.28Zm6.41-11L8.2,1.25h-3V6H9.69Zm4.06,4.49H1.25v4.66H2V11a.63.63,0,0,1,.63-.62H12.6a.63.63,0,0,1,.63.63v1h.52Zm-1.83,2h0a.63.63,0,0,1,0-1.25h0a.63.63,0,0,1,0,1.25Z" fill="#666"/></svg><svg height="15" viewBox="0 0 15 15" width="15" x="4" y="202"><path d="M14.38,13.18H13.23v1.19a.63.63,0,0,1-.62.63H2.66A.63.63,0,0,1,2,14.38V13.18H.63A.63.63,0,0,1,0,12.56V6.65A.63.63,0,0,1,.63,6H3.91V.63A.63.63,0,0,1,4.53,0H8.47a.63.63,0,0,1,.45.19L10.76,2.1a.62.62,0,0,1,.18.43V6h3.44a.63.63,0,0,1,.63.63v5.91A.63.63,0,0,1,14.38,13.18Zm-11.09.57H12V11.59H3.28Zm6.41-11L8.2,1.25h-3V6H9.69Zm4.06,4.49H1.25v4.66H2V11a.63.63,0,0,1,.63-.62H12.6a.63.63,0,0,1,.63.63v1h.52Zm-1.83,2h0a.63.63,0,0,1,0-1.25h0a.63.63,0,0,1,0,1.25Z" fill="#fff"/></svg><svg height="15" viewBox="0 0 11 15" width="10.99" x="4" y="221"><path d="M6.68,14.36a1.42,1.42,0,0,1-2.37,0C2.7,11.81,0,7.21,0,5.17A5.35,5.35,0,0,1,5.5,0,5.35,5.35,0,0,1,11,5.17C11,7.21,8.3,11.81,6.68,14.36ZM5.5,1.25A4.05,4.05,0,0,0,1.33,5.17c0,1.25,1.54,4.45,4.13,8.56a.07.07,0,0,0,.08,0C8.13,9.62,9.67,6.42,9.67,5.17A4.05,4.05,0,0,0,5.5,1.25ZM3.24,4.83A2.2,2.2,0,0,1,5.5,2.7,2.2,2.2,0,0,1,7.76,4.83,2.2,2.2,0,0,1,5.5,7,2.2,2.2,0,0,1,3.24,4.83Zm3.2,0a.94.94,0,0,0-1.87,0,.94.94,0,0,0,1.87,0Z" fill="#666"/></svg><svg height="10.99" viewBox="0 0 15 11" width="15" x="4" y="240"><path d="M14.38,11H.63A.62.62,0,0,1,0,10.38V.61A.62.62,0,0,1,.63,0H14.38A.62.62,0,0,1,15,.61v9.77A.62.62,0,0,1,14.38,11Zm-.62-1.22V1.91l-5.84,5a.63.63,0,0,1-.82,0l-5.84-5V9.77ZM2.35,1.23,7.5,5.65l5.15-4.42Z" fill="#666"/></svg><svg height="13" viewBox="0 0 7 13" width="7" x="4" y="255"><path d="M-15.22,8.59a.6.6,0,0,0-.41-.16.56.56,0,0,0-.58.54.52.52,0,0,0,.17.38l5.46,5.58L-16,20.51a.52.52,0,0,0-.17.38.56.56,0,0,0,.58.54.6.6,0,0,0,.41-.16l5.83-6a.52.52,0,0,0,.17-.38.52.52,0,0,0-.17-.38Z" transform="translate(16.22 -8.43)" fill="#666"/></svg><svg height="13" viewBox="0 0 7 13" width="7" x="4" y="272"><path d="M6,.15A.6.6,0,0,1,6.41,0,.56.56,0,0,1,7,.54a.52.52,0,0,1-.17.38L1.37,6.49l5.46,5.58a.52.52,0,0,1,.17.38.56.56,0,0,1-.58.54A.6.6,0,0,1,6,12.84l-5.83-6a.51.51,0,0,1,0-.77Z" fill="#666"/></svg><svg height="13" viewBox="0 0 7 13" width="7" x="4" y="289"><path d="M6,.15A.6.6,0,0,1,6.41,0,.56.56,0,0,1,7,.54a.52.52,0,0,1-.17.38L1.37,6.49l5.46,5.58a.52.52,0,0,1,.17.38.56.56,0,0,1-.58.54A.6.6,0,0,1,6,12.84l-5.83-6a.51.51,0,0,1,0-.77Z" fill="#59bd52"/></svg><svg height="13" viewBox="0 0 7 13" width="7" x="4" y="306"><path d="M1,.15A.6.6,0,0,0,.59,0,.56.56,0,0,0,0,.54.52.52,0,0,0,.17.92L5.63,6.49.17,12.07a.52.52,0,0,0-.17.38A.56.56,0,0,0,.59,13,.6.6,0,0,0,1,12.84l5.83-6a.52.52,0,0,0,0-.77Z" fill="#fff"/></svg><svg height="10.94" viewBox="0 0 8 11" width="7.98" x="4" y="323"><path d="M5.88,2a2.13,2.13,0,0,0-1.47.52A2.5,2.5,0,0,0,3.66,4h3V5.33H3.55v.84h2.6v1.3H3.68A2.12,2.12,0,0,0,6,9.26a5,5,0,0,0,2-.42v1.88a4.73,4.73,0,0,1-2.15.43,4.42,4.42,0,0,1-3-1,4.36,4.36,0,0,1-1.46-2.7h-1V6.17h.86a2.78,2.78,0,0,1,0-.46V5.33H.48V4h1a4.46,4.46,0,0,1,1.46-2.8,4.37,4.37,0,0,1,3-1,5.69,5.69,0,0,1,2.58.6l-.72,1.7a7.33,7.33,0,0,0-.95-.36A3.23,3.23,0,0,0,5.88,2Z" transform="translate(-.48 -.21)" fill="#fff"/></svg><svg height="10.91" viewBox="0 0 3 11" width="2.56" x="4" y="338"><path d="M-9.36,11.14A1.23,1.23,0,0,1-9,10.21a1.34,1.34,0,0,1,1-.32,1.3,1.3,0,0,1,.94.32,1.23,1.23,0,0,1,.33.92,1.22,1.22,0,0,1-.34.91,1.27,1.27,0,0,1-.94.33,1.32,1.32,0,0,1-1-.33A1.22,1.22,0,0,1-9.36,11.14Zm2.19-2.51H-9l-.37-7.16H-6.8Z" transform="translate(9.36 -1.48)" fill="#fff"/></svg><svg height="7.99" viewBox="0 0 10 8" width="10" x="4" y="353"><path d="M10,1.53,3.46,8,2,6.48H2l-2-2L1.52,3l2,2,5-5Z" transform="translate(-.01 -.01)" fill="#fff"/></svg></svg>