<svg xmlns="http://www.w3.org/2000/svg" viewBox="0 0 15 15"><path d="M13.32,15H1.68A1.68,1.68,0,0,1,0,13.32V1.68A1.68,1.68,0,0,1,1.68,0H13.32A1.68,1.68,0,0,1,15,1.68V13.32A1.68,1.68,0,0,1,13.32,15Zm.43-13.32a.43.43,0,0,0-.43-.43H11.44v.53a.63.63,0,1,1-1.25,0V1.25H4.8v.53a.62.62,0,1,1-1.25,0V1.25H1.68a.43.43,0,0,0-.43.43V4.86h12.5Zm0,4.43H1.25v7.2a.43.43,0,0,0,.43.43H13.32a.43.43,0,0,0,.43-.43Zm-2,6.63H11a.63.63,0,1,1,0-1.25h.75a.63.63,0,1,1,0,1.25Zm0-3.66H11a.63.63,0,0,1,0-1.25h.75a.63.63,0,0,1,0,1.25ZM7.87,12.74H7.13a.63.63,0,1,1,0-1.25h.75a.63.63,0,1,1,0,1.25Zm0-3.66H7.13a.63.63,0,0,1,0-1.25h.75a.63.63,0,0,1,0,1.25ZM4,12.74H3.28a.63.63,0,1,1,0-1.25H4a.63.63,0,1,1,0,1.25ZM4,9.08H3.28a.63.63,0,0,1,0-1.25H4A.63.63,0,0,1,4,9.08Z" fill="#c7c7c7"/></svg>