<svg xmlns="http://www.w3.org/2000/svg" viewBox="0 0 10.99 15"><path d="M6.68,14.36a1.42,1.42,0,0,1-2.37,0C2.7,11.81,0,7.21,0,5.17A5.35,5.35,0,0,1,5.5,0,5.35,5.35,0,0,1,11,5.17C11,7.21,8.3,11.81,6.68,14.36ZM5.5,1.25A4.05,4.05,0,0,0,1.33,5.17c0,1.25,1.54,4.45,4.13,8.56a.07.07,0,0,0,.08,0C8.13,9.62,9.67,6.42,9.67,5.17A4.05,4.05,0,0,0,5.5,1.25ZM3.24,4.83A2.2,2.2,0,0,1,5.5,2.7,2.2,2.2,0,0,1,7.76,4.83,2.2,2.2,0,0,1,5.5,7,2.2,2.2,0,0,1,3.24,4.83Zm3.2,0a.94.94,0,0,0-1.87,0,.94.94,0,0,0,1.87,0Z" fill="#666"/></svg>