<svg xmlns="http://www.w3.org/2000/svg" viewBox="0 0 15 15"><path d="M14.87,4.74a14.08,14.08,0,0,1-3.92,6.21,14.07,14.07,0,0,1-6.21,3.92,3.1,3.1,0,0,1-.9.13A3.28,3.28,0,0,1,1,13.35L.19,11.91A1.41,1.41,0,0,1,.71,10L2.62,8.8a1.42,1.42,0,0,1,1.91.45l.27.43A.16.16,0,0,0,5,9.74a11.83,11.83,0,0,0,2.74-2A12.37,12.37,0,0,0,9.74,5a.16.16,0,0,0-.07-.19l-.42-.27a1.41,1.41,0,0,1-.47-1.89L10,.69a1.41,1.41,0,0,1,1.92-.5L13.35,1A3.26,3.26,0,0,1,14.87,4.74ZM12.73,2.1l-1.44-.82a.16.16,0,0,0-.12,0,.15.15,0,0,0-.1.08l-1.21,2a.16.16,0,0,0,.07.2l.42.27a1.41,1.41,0,0,1,.56,1.71A13.4,13.4,0,0,1,8.61,8.66,12.88,12.88,0,0,1,5.46,10.9a1.41,1.41,0,0,1-1.71-.56l-.27-.42a.16.16,0,0,0-.14-.08l-.08,0L1.35,11.06a.17.17,0,0,0-.08.23l.82,1.44a2,2,0,0,0,2.28.94A12.8,12.8,0,0,0,9.9,10.24l.09-.1.08-.07.07-.08.1-.09a12.79,12.79,0,0,0,3.43-5.52A2,2,0,0,0,12.73,2.1Zm-7,2.33A1.32,1.32,0,0,0,4.43,5.75a.62.62,0,1,1-1.25,0A2.57,2.57,0,0,1,5.75,3.18a.63.63,0,0,1,0,1.25Zm0-2.69a4,4,0,0,0-4,4,.63.63,0,0,1-1.25,0A5.27,5.27,0,0,1,5.75.49a.62.62,0,1,1,0,1.25Z" fill="#666"/></svg>