<svg xmlns="http://www.w3.org/2000/svg" viewBox="0 0 15 15"><path d="M14.38,13.18H13.23v1.19a.63.63,0,0,1-.62.63H2.66A.63.63,0,0,1,2,14.38V13.18H.63A.63.63,0,0,1,0,12.56V6.65A.63.63,0,0,1,.63,6H3.91V.63A.63.63,0,0,1,4.53,0H8.47a.63.63,0,0,1,.45.19L10.76,2.1a.62.62,0,0,1,.18.43V6h3.44a.63.63,0,0,1,.63.63v5.91A.63.63,0,0,1,14.38,13.18Zm-11.09.57H12V11.59H3.28Zm6.41-11L8.2,1.25h-3V6H9.69Zm4.06,4.49H1.25v4.66H2V11a.63.63,0,0,1,.63-.62H12.6a.63.63,0,0,1,.63.63v1h.52Zm-1.83,2h0a.63.63,0,0,1,0-1.25h0a.63.63,0,0,1,0,1.25Z" fill="#fff"/></svg>