<svg xmlns="http://www.w3.org/2000/svg" width="15" height="12"><path fill-rule="evenodd" fill="#666" d="M15.000,1.413 C14.448,1.654 13.855,1.817 13.233,1.890 C13.868,1.515 14.356,0.922 14.586,0.214 C13.991,0.562 13.332,0.813 12.632,0.949 C12.070,0.360 11.270,-0.007 10.385,-0.007 C8.686,-0.007 7.308,1.349 7.308,3.023 C7.308,3.260 7.335,3.491 7.388,3.713 C4.830,3.587 2.563,2.380 1.045,0.547 C0.780,0.995 0.628,1.515 0.628,2.070 C0.628,3.122 1.172,4.049 1.997,4.593 C1.493,4.577 1.018,4.441 0.604,4.213 C0.603,4.226 0.603,4.239 0.603,4.252 C0.603,5.720 1.664,6.945 3.072,7.223 C2.814,7.292 2.541,7.329 2.261,7.329 C2.063,7.329 1.870,7.310 1.682,7.275 C2.074,8.479 3.210,9.355 4.557,9.379 C3.503,10.192 2.177,10.676 0.735,10.676 C0.486,10.676 0.242,10.662 0.001,10.634 C1.363,11.494 2.980,11.996 4.718,11.996 C10.378,11.996 13.473,7.378 13.473,3.374 C13.473,3.243 13.470,3.112 13.464,2.982 C14.066,2.555 14.587,2.021 15.000,1.413 Z"/></svg>